<svg xmlns="http://www.w3.org/2000/svg" xmlns:xlink="http://www.w3.org/1999/xlink" width="512" zoomAndPan="magnify" viewBox="0 0 384 383.999986" height="512" preserveAspectRatio="xMidYMid meet" version="1.0"><defs><clipPath id="941bd31006"><path d="M 31.386719 58 L 104 58 L 104 131 L 31.386719 131 Z M 31.386719 58 " clip-rule="nonzero"/></clipPath></defs><path fill="#ffca6c" d="M 115.378906 213.601562 C 114.785156 217.019531 111.4375 219.117188 108.390625 218.507812 C 79.210938 213.460938 54.59375 190.042969 50.152344 157.910156 C 49.476562 153.097656 49.304688 148.191406 49.644531 143.332031 C 49.886719 139.996094 52.761719 137.53125 56.101562 137.722656 C 59.4375 137.964844 61.949219 140.867188 61.710938 144.179688 C 60.707031 158.722656 65.296875 173.535156 74.085938 184.765625 C 80.992188 193.648438 91.019531 200.785156 102.128906 204.464844 C 102.226562 204.488281 102.347656 204.535156 102.445312 204.5625 C 105.078125 205.457031 107.738281 206.132812 110.472656 206.617188 C 113.757812 207.195312 115.957031 210.3125 115.378906 213.601562 Z M 115.378906 213.601562 " fill-opacity="1" fill-rule="nonzero"/><path fill="#ffb63c" d="M 80.808594 200.941406 C 83.578125 200.867188 85.777344 199.28125 86.949219 196.851562 C 91.191406 199.835938 96.515625 202.605469 102.128906 204.464844 C 102.226562 204.488281 102.347656 204.535156 102.445312 204.5625 C 103.050781 205.429688 103.675781 206.277344 104.378906 207.074219 L 102.324219 206.542969 C 102.324219 210 101.113281 213.480469 98.914062 216.140625 C 85.761719 211.859375 73.820312 203.738281 65.191406 192.984375 C 68.96875 196.175781 75.90625 201.078125 80.808594 200.941406 Z M 80.808594 200.941406 " fill-opacity="1" fill-rule="nonzero"/><path fill="#ffb63c" d="M 64.351562 166.085938 C 60.726562 161.941406 55.644531 158.449219 50.160156 157.917969 C 49.484375 153.105469 49.316406 148.199219 49.652344 143.339844 C 49.894531 140.003906 52.773438 137.539062 56.109375 137.734375 C 59.445312 137.972656 61.957031 140.875 61.71875 144.1875 C 61.210938 151.558594 62.128906 159.027344 64.351562 166.085938 Z M 64.351562 166.085938 " fill-opacity="1" fill-rule="nonzero"/><path fill="#ffca6c" d="M 308.636719 233.785156 C 239.792969 228.570312 161.882812 243.40625 102.425781 278.476562 C 91.730469 284.765625 81.316406 291.09375 69.175781 292.878906 C 68.144531 293.039062 67.152344 292.382812 66.851562 291.390625 C 60.761719 270.890625 67.453125 248.351562 76.316406 228.765625 C 97.027344 182.84375 130.578125 142.914062 171.902344 114.191406 C 184.050781 105.695312 196.980469 98.144531 209.996094 91.894531 C 230.011719 82.273438 254.929688 98.398438 272.089844 112.503906 C 289.230469 126.628906 301.078125 146.722656 306.589844 168.226562 C 312.0625 189.734375 314.003906 212.425781 308.636719 233.785156 Z M 308.636719 233.785156 " fill-opacity="1" fill-rule="nonzero"/><path fill="#ffb63c" d="M 310.917969 221.386719 C 301.394531 225.355469 289.964844 225.375 279.410156 224.285156 C 281.21875 211.46875 283.023438 198.613281 282.921875 185.660156 C 282.636719 154.671875 271.507812 132.972656 244.535156 114.667969 C 232.351562 106.375 218.84375 100.203125 205.410156 94.15625 C 206.9375 93.382812 208.464844 92.628906 209.996094 91.894531 C 230.011719 82.273438 254.929688 98.398438 272.089844 112.503906 C 289.230469 126.628906 301.078125 146.722656 306.589844 168.226562 C 312.035156 189.625 312.753906 207.433594 310.917969 221.386719 Z M 310.917969 221.386719 " fill-opacity="1" fill-rule="nonzero"/><path fill="#ffb63c" d="M 310.742188 222.859375 C 310.257812 226.507812 309.558594 230.160156 308.636719 233.785156 C 238.53125 228.632812 161.386719 243.722656 102.421875 278.480469 C 97.898438 281.140625 93.453125 283.796875 88.859375 286.144531 L 88.832031 286.144531 C 82.597656 289.308594 76.164062 291.847656 69.179688 292.886719 C 68.140625 293.03125 67.148438 292.378906 66.859375 291.386719 C 66.207031 289.1875 65.699219 286.964844 65.335938 284.742188 C 67.96875 286.167969 71.5 286.191406 74.375 285.054688 C 78.511719 283.4375 81.675781 280.074219 84.84375 276.957031 C 127.234375 235.367188 188.644531 226.449219 245.492188 218.796875 C 270.371094 215.417969 295.925781 211.386719 310.742188 222.859375 Z M 310.742188 222.859375 " fill-opacity="1" fill-rule="nonzero"/><path fill="#ffb63c" d="M 302.109375 231.949219 C 296.859375 229.964844 290.8125 232.269531 286.324219 235.597656 C 281.628906 239.085938 277.90625 243.363281 273.171875 246.257812 C 268.335938 249.183594 261.808594 250.417969 257.21875 247.128906 C 255.015625 245.535156 253.445312 243.042969 250.929688 241.957031 C 247.402344 240.433594 243.21875 242.320312 240.582031 245.121094 C 237.949219 247.902344 236.304688 251.480469 234.03125 254.597656 C 226.566406 264.636719 215.097656 265.523438 208.960938 259.433594 C 204.550781 255.085938 203.300781 246.914062 197.359375 244.566406 C 191.386719 242.222656 181.378906 249.0625 178.523438 254.113281 C 175.960938 258.660156 175.695312 264.96875 178.164062 269.632812 C 180.652344 274.347656 183.480469 277.730469 181.714844 283.507812 C 180.242188 288.34375 175.84375 292.160156 170.835938 292.984375 C 163.839844 294.128906 157.566406 289.753906 156.597656 284.546875 C 155.195312 279.011719 158.773438 273.644531 156.863281 268.328125 C 155.441406 264.273438 149.976562 263.65625 145.71875 264.195312 C 134.03125 265.675781 113.578125 272.085938 114.605469 283.796875 C 115.070312 289.246094 120.601562 293.210938 123.476562 297.890625 C 126.449219 302.726562 126.546875 309.035156 124.226562 314.183594 C 119.597656 324.546875 106.191406 326.691406 104.015625 315.921875 C 102.429688 308.488281 107.167969 301.4375 105.078125 294.480469 C 103.074219 287.8125 95.457031 283.917969 88.859375 286.144531 L 88.832031 286.144531 C 82.234375 288.34375 74.882812 289.574219 68.863281 292.71875 C 67.753906 292.742188 67.996094 292.015625 68.40625 291 C 68.792969 289.988281 69.808594 289.359375 70.726562 288.800781 C 133.332031 251.574219 200.835938 218.539062 274.1875 221.820312 C 274.394531 221.894531 287.507812 226.664062 286.6875 226.363281 Z M 302.109375 231.949219 " fill-opacity="1" fill-rule="nonzero"/><path fill="#ffa20d" d="M 119.777344 320.105469 C 116.394531 322.886719 111.269531 324.214844 107.617188 321.773438 C 104.316406 319.574219 103.480469 315.253906 103.726562 311.332031 C 112.75 315.9375 126.101562 306.667969 119.777344 293.105469 C 121.109375 294.652344 122.4375 296.199219 123.476562 297.890625 C 127.777344 304.882812 126.046875 314.9375 119.777344 320.105469 Z M 119.777344 320.105469 " fill-opacity="1" fill-rule="nonzero"/><path fill="#ffa20d" d="M 152.34375 261.945312 C 152.65625 262.863281 152.828125 263.785156 152.875 264.703125 C 146.105469 262.398438 132.394531 266.875 125.871094 269.921875 C 118.496094 273.363281 112.039062 279.753906 115.5 287.011719 C 112.960938 284.0625 110.398438 281.1875 110.058594 277.417969 C 109.503906 271.082031 115.570312 266.226562 121.324219 263.542969 C 129.511719 259.71875 149.296875 253.417969 152.34375 261.945312 Z M 152.34375 261.945312 " fill-opacity="1" fill-rule="nonzero"/><path fill="#ffa20d" d="M 199.800781 246.039062 C 199.074219 245.414062 198.277344 244.929688 197.359375 244.566406 C 191.386719 242.222656 181.378906 249.0625 178.523438 254.113281 C 175.960938 258.660156 175.695312 264.96875 178.164062 269.632812 C 180.652344 274.347656 183.480469 277.730469 181.714844 283.507812 C 180.242188 288.34375 175.84375 292.160156 170.835938 292.984375 C 163.839844 294.128906 157.566406 289.753906 156.597656 284.546875 C 164.144531 289.6875 174.601562 285.550781 177.171875 277.125 C 178.9375 271.347656 176.109375 267.964844 173.617188 263.25 C 171.152344 258.585938 171.417969 252.277344 173.980469 247.734375 C 176.832031 242.679688 186.839844 235.839844 192.8125 238.183594 C 196.199219 239.515625 198.035156 242.707031 199.800781 246.039062 Z M 199.800781 246.039062 " fill-opacity="1" fill-rule="nonzero"/><path fill="#ffa20d" d="M 306.316406 227.839844 C 311.832031 231.179688 313.480469 233.6875 303.707031 233.472656 C 299.476562 233.179688 295.195312 233.011719 290.871094 232.914062 C 284.207031 235.898438 279.484375 242.402344 273.171875 246.257812 C 268.335938 249.183594 261.808594 250.417969 257.21875 247.128906 C 255.015625 245.535156 253.445312 243.042969 250.929688 241.957031 C 247.402344 240.433594 243.21875 242.320312 240.582031 245.121094 C 237.949219 247.902344 236.304688 251.480469 234.03125 254.597656 C 226.566406 264.636719 215.097656 265.523438 208.960938 259.433594 C 207.292969 257.789062 206.109375 255.660156 204.972656 253.535156 C 211.210938 259.023438 222.210938 258 229.488281 248.214844 C 231.761719 245.097656 233.402344 241.519531 236.039062 238.742188 C 238.699219 235.9375 242.882812 234.050781 246.410156 235.574219 C 248.902344 236.664062 250.472656 239.152344 252.671875 240.746094 C 257.265625 244.035156 263.816406 242.800781 268.628906 239.875 C 273.082031 237.15625 277.007812 232.929688 281.34375 229.457031 C 282.769531 228.324219 284.957031 227.296875 286.105469 226.148438 C 291.039062 222.214844 294.296875 216.425781 295.367188 211.085938 C 297.148438 213.984375 299.300781 216.9375 301.796875 219.789062 C 303.875 222.160156 303.628906 226.210938 306.316406 227.839844 Z M 306.316406 227.839844 " fill-opacity="1" fill-rule="nonzero"/><path fill="#f3b2a1" d="M 335.183594 228.855469 C 330.433594 227.101562 352.304688 235.175781 288.960938 211.789062 C 292.667969 197.140625 294.398438 182.3125 292.273438 167.167969 C 290.167969 152.300781 284.222656 137.796875 274.164062 126.652344 C 266.550781 118.21875 256.804688 111.882812 246.53125 107.027344 C 236.257812 102.144531 225.789062 96.535156 214.472656 95.421875 C 200.75 94.085938 194.074219 84.960938 195.183594 76.882812 C 195.882812 71.953125 199.535156 67.816406 203.910156 65.449219 C 203.980469 65.402344 204.054688 65.375 204.128906 65.328125 C 209.601562 62.472656 217.179688 61.726562 223.371094 61.726562 C 261.570312 60.832031 299.089844 82.175781 320.316406 114.058594 C 342.386719 147.25 345.578125 190.371094 335.183594 228.855469 Z M 335.183594 228.855469 " fill-opacity="1" fill-rule="nonzero"/><path fill="#eca392" d="M 304.722656 215.222656 L 298.265625 215.222656 L 288.960938 211.789062 C 292.667969 197.140625 294.398438 182.3125 292.273438 167.167969 C 290.167969 152.300781 284.222656 137.796875 274.164062 126.652344 C 266.550781 118.21875 256.804688 111.882812 246.53125 107.027344 C 236.257812 102.144531 225.789062 96.535156 214.472656 95.421875 C 200.75 94.085938 194.074219 84.960938 195.183594 76.882812 C 195.882812 71.953125 199.535156 67.816406 203.910156 65.449219 C 203.980469 65.402344 204.054688 65.375 204.128906 65.328125 C 209.601562 62.472656 217.179688 61.726562 223.371094 61.726562 C 217.328125 66.851562 216.820312 75.289062 221.628906 81.691406 C 229.730469 92.476562 249.363281 93.3125 267.5625 106.132812 C 283.90625 117.613281 294.0625 136.324219 299.039062 155.683594 C 304.019531 175.023438 304.382812 195.230469 304.722656 215.222656 Z M 304.722656 215.222656 " fill-opacity="1" fill-rule="nonzero"/><path fill="#e69482" d="M 335.183594 228.855469 C 330.1875 241.546875 300.3125 236.089844 290.964844 221 C 289.011719 217.925781 287.921875 214.167969 289.296875 210.871094 C 293.46875 200.175781 317.050781 201.886719 329.839844 214.277344 C 333.320312 217.664062 337.140625 223.765625 335.183594 228.855469 Z M 335.183594 228.855469 " fill-opacity="1" fill-rule="nonzero"/><path fill="#129b50" d="M 142.605469 166.207031 C 143.429688 166.703125 144.222656 167.25 144.980469 167.847656 C 145.738281 168.445312 146.460938 169.089844 147.148438 169.78125 C 147.832031 170.472656 148.476562 171.210938 149.082031 171.988281 C 149.691406 172.769531 150.253906 173.589844 150.773438 174.453125 C 151.292969 175.3125 151.765625 176.210938 152.195312 177.144531 C 152.625 178.078125 153.007812 179.042969 153.339844 180.039062 C 153.675781 181.035156 153.960938 182.058594 154.199219 183.109375 C 154.433594 184.160156 154.621094 185.234375 154.753906 186.328125 C 154.890625 187.421875 154.976562 188.53125 155.011719 189.660156 C 155.042969 190.789062 155.027344 191.925781 154.960938 193.078125 C 154.890625 194.226562 154.773438 195.382812 154.605469 196.542969 C 154.433594 197.703125 154.214844 198.863281 153.945312 200.027344 C 153.679688 201.1875 153.359375 202.34375 152.996094 203.492188 C 152.628906 204.640625 152.214844 205.78125 151.753906 206.910156 C 151.296875 208.035156 150.792969 209.148438 150.242188 210.242188 C 149.695312 211.335938 149.101562 212.410156 148.46875 213.460938 C 147.835938 214.511719 147.164062 215.535156 146.453125 216.53125 C 145.746094 217.53125 145 218.496094 144.214844 219.429688 C 143.433594 220.363281 142.621094 221.261719 141.777344 222.121094 C 140.929688 222.984375 140.058594 223.804688 139.160156 224.585938 C 138.257812 225.367188 137.335938 226.105469 136.386719 226.796875 C 135.441406 227.488281 134.472656 228.136719 133.488281 228.734375 C 132.503906 229.332031 131.507812 229.878906 130.496094 230.375 C 129.480469 230.875 128.460938 231.320312 127.429688 231.710938 C 126.398438 232.101562 125.363281 232.441406 124.324219 232.722656 C 123.285156 233.007812 122.246094 233.234375 121.210938 233.402344 C 120.171875 233.574219 119.140625 233.6875 118.113281 233.746094 C 117.089844 233.804688 116.074219 233.804688 115.070312 233.746094 C 114.0625 233.691406 113.074219 233.578125 112.101562 233.40625 C 111.128906 233.238281 110.175781 233.011719 109.242188 232.730469 C 108.3125 232.449219 107.402344 232.109375 106.519531 231.71875 C 105.636719 231.328125 104.785156 230.882812 103.957031 230.386719 C 103.132812 229.890625 102.339844 229.34375 101.582031 228.746094 C 100.824219 228.148438 100.101562 227.503906 99.414062 226.8125 C 98.730469 226.121094 98.085938 225.386719 97.476562 224.605469 C 96.871094 223.824219 96.308594 223.003906 95.789062 222.140625 C 95.269531 221.28125 94.796875 220.382812 94.367188 219.449219 C 93.9375 218.515625 93.554688 217.550781 93.21875 216.554688 C 92.886719 215.558594 92.601562 214.535156 92.363281 213.484375 C 92.128906 212.433594 91.941406 211.359375 91.804688 210.265625 C 91.671875 209.171875 91.585938 208.0625 91.550781 206.933594 C 91.515625 205.808594 91.535156 204.667969 91.601562 203.519531 C 91.667969 202.367188 91.789062 201.214844 91.957031 200.050781 C 92.125 198.890625 92.347656 197.730469 92.613281 196.570312 C 92.882812 195.40625 93.203125 194.253906 93.566406 193.101562 C 93.933594 191.953125 94.347656 190.8125 94.804688 189.6875 C 95.265625 188.558594 95.769531 187.449219 96.320312 186.351562 C 96.867188 185.257812 97.460938 184.183594 98.09375 183.132812 C 98.726562 182.082031 99.398438 181.058594 100.105469 180.0625 C 100.816406 179.066406 101.5625 178.097656 102.34375 177.164062 C 103.128906 176.230469 103.941406 175.332031 104.785156 174.472656 C 105.628906 173.609375 106.503906 172.789062 107.402344 172.007812 C 108.304688 171.226562 109.226562 170.488281 110.175781 169.796875 C 111.121094 169.105469 112.085938 168.460938 113.070312 167.859375 C 114.058594 167.261719 115.054688 166.714844 116.066406 166.21875 C 117.082031 165.71875 118.101562 165.277344 119.132812 164.882812 C 120.164062 164.492188 121.199219 164.15625 122.238281 163.871094 C 123.277344 163.589844 124.316406 163.363281 125.351562 163.191406 C 126.390625 163.019531 127.421875 162.90625 128.449219 162.847656 C 129.472656 162.789062 130.488281 162.789062 131.492188 162.847656 C 132.496094 162.902344 133.488281 163.015625 134.460938 163.1875 C 135.433594 163.355469 136.386719 163.582031 137.316406 163.863281 C 138.25 164.148438 139.160156 164.484375 140.042969 164.875 C 140.925781 165.265625 141.777344 165.710938 142.605469 166.207031 Z M 142.605469 166.207031 " fill-opacity="1" fill-rule="nonzero"/><path fill="#20b267" d="M 137.769531 163.296875 C 138.59375 163.796875 139.386719 164.34375 140.144531 164.9375 C 140.902344 165.535156 141.625 166.179688 142.3125 166.875 C 142.996094 167.566406 143.640625 168.300781 144.246094 169.082031 C 144.855469 169.863281 145.417969 170.683594 145.9375 171.542969 C 146.457031 172.40625 146.929688 173.300781 147.359375 174.234375 C 147.789062 175.167969 148.171875 176.132812 148.503906 177.128906 C 148.839844 178.128906 149.125 179.152344 149.363281 180.203125 C 149.597656 181.253906 149.785156 182.324219 149.917969 183.417969 C 150.054688 184.515625 150.140625 185.625 150.175781 186.753906 C 150.210938 187.878906 150.191406 189.019531 150.125 190.167969 C 150.054688 191.316406 149.9375 192.472656 149.769531 193.632812 C 149.597656 194.796875 149.378906 195.957031 149.113281 197.117188 C 148.84375 198.277344 148.523438 199.433594 148.160156 200.582031 C 147.792969 201.734375 147.378906 202.871094 146.921875 204 C 146.460938 205.128906 145.957031 206.238281 145.40625 207.332031 C 144.859375 208.429688 144.265625 209.5 143.632812 210.550781 C 143 211.601562 142.328125 212.628906 141.617188 213.625 C 140.910156 214.621094 140.164062 215.585938 139.378906 216.519531 C 138.597656 217.457031 137.785156 218.351562 136.941406 219.214844 C 136.09375 220.074219 135.222656 220.898438 134.324219 221.679688 C 133.421875 222.460938 132.5 223.195312 131.550781 223.890625 C 130.605469 224.582031 129.636719 225.226562 128.652344 225.824219 C 127.667969 226.421875 126.671875 226.972656 125.660156 227.46875 C 124.644531 227.964844 123.625 228.410156 122.59375 228.800781 C 121.5625 229.195312 120.527344 229.53125 119.488281 229.816406 C 118.449219 230.097656 117.410156 230.324219 116.375 230.496094 C 115.335938 230.667969 114.304688 230.78125 113.277344 230.839844 C 112.253906 230.894531 111.238281 230.894531 110.234375 230.839844 C 109.226562 230.78125 108.238281 230.667969 107.265625 230.5 C 106.292969 230.328125 105.339844 230.101562 104.40625 229.820312 C 103.476562 229.539062 102.566406 229.203125 101.683594 228.8125 C 100.800781 228.421875 99.949219 227.976562 99.121094 227.480469 C 98.296875 226.984375 97.503906 226.4375 96.746094 225.839844 C 95.988281 225.242188 95.265625 224.597656 94.578125 223.90625 C 93.894531 223.210938 93.25 222.476562 92.644531 221.695312 C 92.035156 220.914062 91.472656 220.09375 90.953125 219.234375 C 90.433594 218.375 89.960938 217.476562 89.53125 216.542969 C 89.101562 215.609375 88.71875 214.644531 88.382812 213.648438 C 88.050781 212.648438 87.765625 211.625 87.527344 210.574219 C 87.292969 209.523438 87.105469 208.453125 86.96875 207.359375 C 86.835938 206.265625 86.75 205.152344 86.714844 204.027344 C 86.679688 202.898438 86.699219 201.757812 86.765625 200.609375 C 86.835938 199.460938 86.953125 198.304688 87.121094 197.144531 C 87.292969 195.984375 87.511719 194.820312 87.777344 193.660156 C 88.046875 192.5 88.367188 191.34375 88.730469 190.195312 C 89.097656 189.042969 89.511719 187.90625 89.96875 186.777344 C 90.429688 185.648438 90.933594 184.539062 91.484375 183.445312 C 92.03125 182.351562 92.625 181.277344 93.257812 180.226562 C 93.890625 179.175781 94.5625 178.152344 95.269531 177.152344 C 95.980469 176.15625 96.726562 175.191406 97.511719 174.257812 C 98.292969 173.324219 99.105469 172.425781 99.949219 171.5625 C 100.796875 170.703125 101.667969 169.878906 102.566406 169.097656 C 103.46875 168.320312 104.390625 167.582031 105.339844 166.890625 C 106.285156 166.195312 107.25 165.550781 108.238281 164.953125 C 109.222656 164.355469 110.21875 163.808594 111.230469 163.308594 C 112.246094 162.8125 113.265625 162.367188 114.296875 161.976562 C 115.328125 161.582031 116.363281 161.246094 117.402344 160.964844 C 118.441406 160.679688 119.480469 160.453125 120.515625 160.28125 C 121.554688 160.113281 122.585938 159.996094 123.613281 159.941406 C 124.636719 159.882812 125.652344 159.882812 126.65625 159.9375 C 127.660156 159.996094 128.652344 160.109375 129.625 160.277344 C 130.597656 160.449219 131.550781 160.675781 132.484375 160.957031 C 133.414062 161.238281 134.324219 161.574219 135.207031 161.964844 C 136.089844 162.359375 136.941406 162.800781 137.769531 163.296875 Z M 137.769531 163.296875 " fill-opacity="1" fill-rule="nonzero"/><path fill="#129b50" d="M 130.136719 172.035156 C 130.710938 172.378906 131.261719 172.761719 131.789062 173.175781 C 132.316406 173.589844 132.816406 174.039062 133.292969 174.519531 C 133.773438 175 134.21875 175.511719 134.640625 176.054688 C 135.0625 176.597656 135.453125 177.167969 135.816406 177.765625 C 136.175781 178.363281 136.507812 178.988281 136.804688 179.636719 C 137.101562 180.285156 137.367188 180.957031 137.601562 181.648438 C 137.832031 182.34375 138.03125 183.054688 138.195312 183.785156 C 138.359375 184.515625 138.488281 185.261719 138.585938 186.019531 C 138.679688 186.78125 138.738281 187.554688 138.761719 188.339844 C 138.785156 189.121094 138.773438 189.914062 138.726562 190.710938 C 138.679688 191.511719 138.597656 192.316406 138.480469 193.121094 C 138.363281 193.929688 138.210938 194.734375 138.023438 195.542969 C 137.835938 196.351562 137.613281 197.152344 137.359375 197.953125 C 137.105469 198.753906 136.820312 199.542969 136.5 200.328125 C 136.179688 201.113281 135.828125 201.882812 135.449219 202.644531 C 135.066406 203.40625 134.65625 204.152344 134.214844 204.882812 C 133.777344 205.613281 133.308594 206.324219 132.816406 207.019531 C 132.320312 207.710938 131.800781 208.382812 131.257812 209.03125 C 130.714844 209.679688 130.148438 210.304688 129.5625 210.902344 C 128.976562 211.503906 128.367188 212.074219 127.742188 212.617188 C 127.117188 213.160156 126.472656 213.671875 125.816406 214.152344 C 125.15625 214.632812 124.488281 215.082031 123.800781 215.5 C 123.117188 215.914062 122.421875 216.296875 121.71875 216.640625 C 121.015625 216.988281 120.304688 217.296875 119.589844 217.566406 C 118.871094 217.839844 118.152344 218.074219 117.429688 218.273438 C 116.707031 218.46875 115.988281 218.625 115.265625 218.746094 C 114.542969 218.863281 113.828125 218.941406 113.113281 218.984375 C 112.402344 219.023438 111.695312 219.023438 110.996094 218.984375 C 110.296875 218.945312 109.613281 218.867188 108.933594 218.746094 C 108.257812 218.628906 107.597656 218.472656 106.949219 218.277344 C 106.300781 218.082031 105.667969 217.847656 105.054688 217.574219 C 104.441406 217.300781 103.847656 216.992188 103.273438 216.648438 C 102.699219 216.304688 102.148438 215.921875 101.621094 215.507812 C 101.09375 215.09375 100.59375 214.644531 100.117188 214.164062 C 99.640625 213.683594 99.191406 213.171875 98.769531 212.628906 C 98.347656 212.085938 97.957031 211.515625 97.59375 210.917969 C 97.234375 210.316406 96.902344 209.695312 96.605469 209.046875 C 96.308594 208.398438 96.042969 207.726562 95.808594 207.03125 C 95.578125 206.339844 95.378906 205.628906 95.214844 204.898438 C 95.050781 204.167969 94.921875 203.421875 94.828125 202.660156 C 94.730469 201.902344 94.671875 201.128906 94.648438 200.34375 C 94.625 199.5625 94.636719 198.769531 94.683594 197.96875 C 94.730469 197.171875 94.8125 196.367188 94.929688 195.5625 C 95.050781 194.753906 95.203125 193.945312 95.386719 193.140625 C 95.574219 192.332031 95.796875 191.53125 96.050781 190.730469 C 96.304688 189.929688 96.59375 189.140625 96.910156 188.355469 C 97.230469 187.570312 97.582031 186.800781 97.964844 186.039062 C 98.34375 185.277344 98.753906 184.53125 99.195312 183.800781 C 99.636719 183.070312 100.101562 182.359375 100.597656 181.664062 C 101.089844 180.972656 101.609375 180.300781 102.152344 179.652344 C 102.695312 179.003906 103.261719 178.378906 103.847656 177.78125 C 104.4375 177.179688 105.042969 176.609375 105.667969 176.066406 C 106.292969 175.523438 106.9375 175.011719 107.59375 174.53125 C 108.253906 174.046875 108.925781 173.601562 109.609375 173.183594 C 110.292969 172.769531 110.988281 172.386719 111.691406 172.042969 C 112.394531 171.695312 113.105469 171.386719 113.820312 171.113281 C 114.539062 170.84375 115.257812 170.609375 115.980469 170.410156 C 116.703125 170.214844 117.425781 170.058594 118.144531 169.9375 C 118.867188 169.820312 119.582031 169.738281 120.296875 169.699219 C 121.011719 169.660156 121.714844 169.660156 122.414062 169.699219 C 123.113281 169.738281 123.800781 169.816406 124.476562 169.933594 C 125.152344 170.054688 125.816406 170.210938 126.460938 170.40625 C 127.109375 170.601562 127.742188 170.835938 128.355469 171.109375 C 128.96875 171.382812 129.5625 171.691406 130.136719 172.035156 Z M 130.136719 172.035156 " fill-opacity="1" fill-rule="nonzero"/><path fill="#3be094" d="M 132.660156 173.550781 C 133.230469 173.894531 133.78125 174.277344 134.308594 174.691406 C 134.835938 175.105469 135.339844 175.554688 135.816406 176.035156 C 136.292969 176.515625 136.742188 177.027344 137.164062 177.570312 C 137.582031 178.113281 137.976562 178.683594 138.335938 179.28125 C 138.699219 179.882812 139.027344 180.503906 139.328125 181.152344 C 139.625 181.804688 139.890625 182.472656 140.121094 183.167969 C 140.355469 183.859375 140.554688 184.570312 140.71875 185.300781 C 140.882812 186.03125 141.011719 186.777344 141.105469 187.539062 C 141.199219 188.296875 141.257812 189.070312 141.28125 189.855469 C 141.308594 190.636719 141.296875 191.429688 141.246094 192.230469 C 141.199219 193.027344 141.117188 193.832031 141 194.636719 C 140.882812 195.445312 140.730469 196.253906 140.542969 197.058594 C 140.355469 197.867188 140.136719 198.671875 139.882812 199.46875 C 139.628906 200.269531 139.339844 201.058594 139.019531 201.84375 C 138.699219 202.628906 138.351562 203.402344 137.96875 204.160156 C 137.585938 204.921875 137.175781 205.667969 136.738281 206.398438 C 136.296875 207.128906 135.828125 207.839844 135.335938 208.535156 C 134.839844 209.226562 134.324219 209.898438 133.78125 210.546875 C 133.238281 211.195312 132.671875 211.820312 132.082031 212.421875 C 131.496094 213.019531 130.890625 213.589844 130.261719 214.132812 C 129.636719 214.675781 128.996094 215.1875 128.335938 215.667969 C 127.679688 216.152344 127.007812 216.601562 126.324219 217.015625 C 125.640625 217.429688 124.945312 217.8125 124.242188 218.15625 C 123.539062 218.503906 122.828125 218.8125 122.109375 219.085938 C 121.394531 219.355469 120.675781 219.59375 119.953125 219.789062 C 119.230469 219.984375 118.507812 220.144531 117.785156 220.261719 C 117.066406 220.378906 116.347656 220.460938 115.636719 220.5 C 114.921875 220.539062 114.214844 220.539062 113.519531 220.5 C 112.820312 220.460938 112.132812 220.382812 111.457031 220.265625 C 110.78125 220.144531 110.117188 219.988281 109.46875 219.792969 C 108.820312 219.597656 108.191406 219.363281 107.574219 219.089844 C 106.960938 218.820312 106.367188 218.511719 105.796875 218.164062 C 105.222656 217.820312 104.671875 217.441406 104.144531 217.023438 C 103.617188 216.609375 103.113281 216.160156 102.636719 215.679688 C 102.160156 215.199219 101.710938 214.6875 101.289062 214.144531 C 100.871094 213.601562 100.476562 213.03125 100.117188 212.433594 C 99.753906 211.835938 99.425781 211.210938 99.125 210.5625 C 98.828125 209.914062 98.5625 209.242188 98.332031 208.550781 C 98.097656 207.855469 97.898438 207.144531 97.734375 206.414062 C 97.570312 205.683594 97.441406 204.9375 97.347656 204.179688 C 97.253906 203.417969 97.195312 202.644531 97.171875 201.863281 C 97.148438 201.078125 97.160156 200.285156 97.207031 199.488281 C 97.253906 198.6875 97.335938 197.882812 97.453125 197.078125 C 97.570312 196.269531 97.722656 195.464844 97.910156 194.65625 C 98.097656 193.847656 98.316406 193.046875 98.570312 192.246094 C 98.824219 191.449219 99.113281 190.65625 99.433594 189.871094 C 99.753906 189.089844 100.101562 188.316406 100.484375 187.554688 C 100.867188 186.792969 101.277344 186.046875 101.714844 185.316406 C 102.15625 184.585938 102.625 183.875 103.117188 183.183594 C 103.613281 182.488281 104.128906 181.816406 104.671875 181.167969 C 105.21875 180.519531 105.78125 179.894531 106.371094 179.296875 C 106.957031 178.695312 107.5625 178.125 108.191406 177.582031 C 108.816406 177.039062 109.457031 176.527344 110.117188 176.046875 C 110.773438 175.566406 111.445312 175.117188 112.128906 174.699219 C 112.8125 174.285156 113.507812 173.90625 114.210938 173.558594 C 114.914062 173.214844 115.625 172.902344 116.34375 172.632812 C 117.058594 172.359375 117.777344 172.125 118.5 171.929688 C 119.222656 171.730469 119.945312 171.574219 120.667969 171.453125 C 121.386719 171.335938 122.105469 171.257812 122.816406 171.214844 C 123.53125 171.175781 124.238281 171.175781 124.933594 171.214844 C 125.632812 171.253906 126.320312 171.332031 126.996094 171.453125 C 127.671875 171.570312 128.335938 171.726562 128.984375 171.921875 C 129.632812 172.121094 130.261719 172.355469 130.878906 172.625 C 131.492188 172.898438 132.085938 173.207031 132.660156 173.550781 Z M 132.660156 173.550781 " fill-opacity="1" fill-rule="nonzero"/><path fill="#20b267" d="M 123.589844 201.625 C 122.546875 204.453125 119.976562 207.089844 116.773438 207.269531 C 116.410156 208.136719 116.046875 208.996094 115.6875 209.855469 C 115.574219 210.117188 115.492188 210.214844 115.222656 210.125 C 113.828125 209.675781 112.957031 209.441406 112.089844 208.960938 C 111.796875 208.789062 111.664062 208.59375 111.757812 208.1875 C 111.785156 207.960938 111.855469 207.808594 112.667969 205.765625 C 111.785156 204.863281 111 204.085938 110.3125 202.328125 C 109.960938 201.238281 110.011719 201.179688 110.402344 200.628906 C 111.058594 199.695312 112.242188 198.421875 112.691406 198.019531 C 112.890625 197.828125 113.21875 197.835938 113.449219 198.300781 C 113.703125 198.871094 113.777344 198.898438 113.976562 199.25 L 113.984375 199.253906 C 114.765625 200.410156 115.785156 201.167969 117.226562 201.359375 C 118.996094 201.589844 119.585938 200.109375 118.902344 198.605469 C 117.984375 196.527344 116.171875 195.140625 115.609375 192.859375 C 114.601562 189.019531 117.855469 183.769531 122.582031 183.542969 C 122.96875 182.636719 123.351562 181.722656 123.734375 180.808594 C 123.871094 180.488281 123.945312 180.484375 124.183594 180.539062 C 125.53125 180.972656 126.519531 181.261719 127.261719 181.699219 C 127.546875 181.871094 127.675781 182.03125 127.597656 182.445312 C 127.546875 182.675781 127.492188 182.808594 126.6875 184.859375 C 127.535156 185.507812 128.226562 186.402344 128.679688 187.355469 C 128.828125 187.65625 128.984375 187.890625 128.710938 188.273438 C 128.542969 188.472656 127.867188 189.789062 126.109375 191.375 C 125.523438 191.886719 125.601562 191.726562 125.257812 191.15625 C 124.679688 190.175781 123.675781 189.464844 122.710938 189.203125 C 121.128906 188.6875 120.292969 190.171875 120.972656 191.671875 C 121.871094 193.578125 123.882812 194.019531 124.140625 197.800781 C 124.152344 197.933594 124.160156 198.066406 124.164062 198.195312 C 124.195312 199.328125 124.011719 200.503906 123.589844 201.625 Z M 123.589844 201.625 " fill-opacity="1" fill-rule="nonzero"/><path fill="#129b50" d="M 123.589844 201.625 C 122.546875 204.453125 119.976562 207.089844 116.773438 207.269531 C 116.410156 208.136719 116.046875 208.996094 115.6875 209.855469 C 115.574219 210.117188 115.492188 210.214844 115.222656 210.125 C 113.828125 209.675781 112.957031 209.441406 112.089844 208.960938 C 111.796875 208.789062 111.664062 208.59375 111.757812 208.1875 C 111.785156 207.960938 111.855469 207.808594 112.667969 205.765625 C 111.785156 204.863281 111 204.085938 110.3125 202.328125 C 109.960938 201.238281 110.011719 201.179688 110.402344 200.628906 C 111.058594 199.695312 112.242188 198.421875 112.691406 198.019531 C 112.890625 197.828125 113.21875 197.835938 113.449219 198.300781 C 113.703125 198.871094 113.777344 198.898438 113.976562 199.25 C 113.300781 199.429688 112.714844 200.339844 112.65625 201.164062 C 112.511719 203.609375 116.027344 206.085938 119.613281 204.140625 C 121.738281 202.984375 123.746094 200.398438 124.140625 197.800781 C 124.152344 197.933594 124.160156 198.066406 124.164062 198.195312 C 124.195312 199.328125 124.011719 200.503906 123.589844 201.625 Z M 123.589844 201.625 " fill-opacity="1" fill-rule="nonzero"/><path fill="#e22626" d="M 258.261719 133.867188 C 258.847656 134.417969 259.398438 135 259.914062 135.621094 C 260.425781 136.238281 260.90625 136.890625 261.34375 137.574219 C 261.78125 138.257812 262.179688 138.96875 262.539062 139.710938 C 262.898438 140.453125 263.210938 141.222656 263.488281 142.015625 C 263.761719 142.808594 263.992188 143.621094 264.179688 144.457031 C 264.367188 145.292969 264.511719 146.148438 264.609375 147.019531 C 264.707031 147.890625 264.761719 148.773438 264.773438 149.671875 C 264.78125 150.570312 264.746094 151.476562 264.667969 152.394531 C 264.585938 153.308594 264.464844 154.230469 264.296875 155.15625 C 264.125 156.082031 263.914062 157.007812 263.660156 157.933594 C 263.402344 158.859375 263.105469 159.78125 262.765625 160.699219 C 262.425781 161.617188 262.042969 162.523438 261.621094 163.425781 C 261.203125 164.324219 260.742188 165.210938 260.242188 166.085938 C 259.742188 166.960938 259.207031 167.816406 258.636719 168.65625 C 258.066406 169.496094 257.460938 170.316406 256.824219 171.113281 C 256.183594 171.910156 255.515625 172.679688 254.816406 173.429688 C 254.117188 174.175781 253.390625 174.894531 252.636719 175.582031 C 251.882812 176.273438 251.109375 176.929688 250.308594 177.554688 C 249.507812 178.183594 248.6875 178.773438 247.847656 179.328125 C 247.007812 179.882812 246.15625 180.402344 245.285156 180.882812 C 244.414062 181.363281 243.53125 181.800781 242.640625 182.203125 C 241.746094 182.601562 240.847656 182.960938 239.9375 183.277344 C 239.03125 183.59375 238.121094 183.867188 237.210938 184.097656 C 236.296875 184.324219 235.386719 184.511719 234.476562 184.652344 C 233.570312 184.789062 232.664062 184.886719 231.769531 184.9375 C 230.871094 184.984375 229.984375 184.988281 229.109375 184.949219 C 228.234375 184.90625 227.371094 184.820312 226.527344 184.691406 C 225.679688 184.558594 224.851562 184.382812 224.042969 184.160156 C 223.234375 183.941406 222.445312 183.675781 221.683594 183.367188 C 220.917969 183.058594 220.179688 182.707031 219.46875 182.316406 C 218.757812 181.921875 218.074219 181.492188 217.421875 181.019531 C 216.769531 180.546875 216.152344 180.035156 215.566406 179.484375 C 214.980469 178.9375 214.429688 178.355469 213.914062 177.734375 C 213.398438 177.117188 212.921875 176.464844 212.484375 175.78125 C 212.042969 175.097656 211.644531 174.382812 211.289062 173.640625 C 210.929688 172.898438 210.613281 172.132812 210.339844 171.339844 C 210.066406 170.546875 209.835938 169.734375 209.648438 168.898438 C 209.460938 168.058594 209.316406 167.207031 209.21875 166.335938 C 209.117188 165.464844 209.0625 164.578125 209.054688 163.683594 C 209.042969 162.785156 209.078125 161.875 209.160156 160.960938 C 209.238281 160.042969 209.363281 159.125 209.53125 158.199219 C 209.699219 157.273438 209.910156 156.347656 210.167969 155.421875 C 210.421875 154.496094 210.71875 153.574219 211.0625 152.65625 C 211.402344 151.738281 211.78125 150.828125 212.203125 149.929688 C 212.625 149.03125 213.085938 148.140625 213.585938 147.269531 C 214.082031 146.394531 214.617188 145.535156 215.1875 144.699219 C 215.761719 143.859375 216.367188 143.039062 217.003906 142.242188 C 217.640625 141.445312 218.3125 140.671875 219.011719 139.925781 C 219.710938 139.179688 220.433594 138.460938 221.1875 137.769531 C 221.941406 137.082031 222.71875 136.421875 223.519531 135.796875 C 224.320312 135.171875 225.136719 134.582031 225.976562 134.027344 C 226.816406 133.46875 227.671875 132.953125 228.542969 132.472656 C 229.414062 131.992188 230.292969 131.550781 231.1875 131.152344 C 232.082031 130.75 232.980469 130.394531 233.886719 130.078125 C 234.792969 129.761719 235.703125 129.488281 236.617188 129.257812 C 237.527344 129.027344 238.441406 128.84375 239.347656 128.703125 C 240.257812 128.5625 241.160156 128.46875 242.058594 128.417969 C 242.953125 128.367188 243.839844 128.363281 244.714844 128.40625 C 245.59375 128.445312 246.453125 128.53125 247.300781 128.664062 C 248.148438 128.796875 248.976562 128.972656 249.785156 129.191406 C 250.59375 129.414062 251.378906 129.679688 252.144531 129.988281 C 252.910156 130.296875 253.644531 130.644531 254.359375 131.039062 C 255.070312 131.429688 255.75 131.863281 256.402344 132.335938 C 257.054688 132.808594 257.675781 133.320312 258.261719 133.867188 Z M 258.261719 133.867188 " fill-opacity="1" fill-rule="nonzero"/><path fill="#f04444" d="M 254.824219 130.648438 C 255.410156 131.199219 255.960938 131.78125 256.476562 132.402344 C 256.992188 133.019531 257.46875 133.671875 257.90625 134.355469 C 258.347656 135.039062 258.746094 135.753906 259.101562 136.496094 C 259.460938 137.238281 259.777344 138.003906 260.050781 138.796875 C 260.324219 139.589844 260.554688 140.402344 260.742188 141.238281 C 260.929688 142.074219 261.074219 142.929688 261.175781 143.800781 C 261.273438 144.671875 261.328125 145.554688 261.335938 146.453125 C 261.347656 147.351562 261.3125 148.257812 261.230469 149.175781 C 261.152344 150.089844 261.027344 151.011719 260.859375 151.9375 C 260.691406 152.863281 260.480469 153.789062 260.222656 154.714844 C 259.96875 155.640625 259.671875 156.5625 259.332031 157.480469 C 258.988281 158.398438 258.609375 159.304688 258.1875 160.207031 C 257.765625 161.105469 257.304688 161.992188 256.808594 162.867188 C 256.308594 163.742188 255.773438 164.597656 255.203125 165.4375 C 254.628906 166.277344 254.027344 167.097656 253.386719 167.894531 C 252.75 168.691406 252.082031 169.464844 251.382812 170.210938 C 250.683594 170.957031 249.957031 171.675781 249.203125 172.367188 C 248.449219 173.054688 247.671875 173.714844 246.871094 174.339844 C 246.070312 174.964844 245.253906 175.554688 244.414062 176.109375 C 243.574219 176.667969 242.71875 177.183594 241.847656 177.664062 C 240.976562 178.144531 240.097656 178.585938 239.203125 178.984375 C 238.3125 179.386719 237.410156 179.742188 236.503906 180.058594 C 235.597656 180.375 234.6875 180.648438 233.773438 180.878906 C 232.863281 181.109375 231.953125 181.292969 231.042969 181.433594 C 230.132812 181.574219 229.230469 181.667969 228.332031 181.71875 C 227.4375 181.769531 226.550781 181.773438 225.675781 181.730469 C 224.796875 181.691406 223.9375 181.605469 223.089844 181.472656 C 222.242188 181.339844 221.414062 181.164062 220.605469 180.941406 C 219.796875 180.722656 219.011719 180.457031 218.246094 180.148438 C 217.484375 179.839844 216.746094 179.492188 216.035156 179.097656 C 215.320312 178.707031 214.640625 178.273438 213.988281 177.800781 C 213.335938 177.328125 212.714844 176.816406 212.128906 176.269531 C 211.542969 175.71875 210.992188 175.136719 210.476562 174.515625 C 209.964844 173.898438 209.488281 173.246094 209.046875 172.5625 C 208.609375 171.878906 208.210938 171.164062 207.851562 170.425781 C 207.496094 169.683594 207.179688 168.914062 206.902344 168.121094 C 206.628906 167.328125 206.398438 166.515625 206.210938 165.679688 C 206.023438 164.84375 205.878906 163.988281 205.78125 163.117188 C 205.683594 162.246094 205.628906 161.363281 205.617188 160.464844 C 205.609375 159.566406 205.644531 158.660156 205.722656 157.742188 C 205.804688 156.828125 205.925781 155.90625 206.097656 154.980469 C 206.265625 154.054688 206.476562 153.128906 206.730469 152.203125 C 206.988281 151.277344 207.285156 150.355469 207.625 149.4375 C 207.964844 148.519531 208.347656 147.613281 208.769531 146.710938 C 209.191406 145.8125 209.648438 144.925781 210.148438 144.050781 C 210.648438 143.175781 211.183594 142.320312 211.753906 141.480469 C 212.324219 140.640625 212.929688 139.820312 213.570312 139.023438 C 214.207031 138.226562 214.875 137.453125 215.574219 136.707031 C 216.273438 135.960938 217 135.242188 217.753906 134.554688 C 218.507812 133.863281 219.285156 133.207031 220.082031 132.578125 C 220.882812 131.953125 221.703125 131.363281 222.542969 130.808594 C 223.382812 130.253906 224.238281 129.734375 225.105469 129.253906 C 225.976562 128.773438 226.859375 128.332031 227.75 127.933594 C 228.644531 127.535156 229.542969 127.175781 230.453125 126.859375 C 231.359375 126.542969 232.269531 126.269531 233.179688 126.039062 C 234.09375 125.8125 235.003906 125.625 235.914062 125.484375 C 236.824219 125.34375 237.726562 125.25 238.621094 125.199219 C 239.519531 125.152344 240.40625 125.144531 241.28125 125.1875 C 242.15625 125.230469 243.019531 125.316406 243.863281 125.445312 C 244.710938 125.578125 245.539062 125.753906 246.347656 125.976562 C 247.160156 126.195312 247.945312 126.460938 248.710938 126.769531 C 249.472656 127.078125 250.210938 127.429688 250.921875 127.820312 C 251.632812 128.210938 252.316406 128.644531 252.96875 129.117188 C 253.621094 129.589844 254.238281 130.101562 254.824219 130.648438 Z M 254.824219 130.648438 " fill-opacity="1" fill-rule="nonzero"/><path fill="#e22626" d="M 247.078125 136.449219 C 247.488281 136.828125 247.871094 137.234375 248.226562 137.667969 C 248.585938 138.097656 248.917969 138.550781 249.222656 139.023438 C 249.527344 139.5 249.804688 139.996094 250.054688 140.511719 C 250.300781 141.027344 250.523438 141.558594 250.710938 142.113281 C 250.902344 142.664062 251.0625 143.230469 251.195312 143.808594 C 251.324219 144.390625 251.425781 144.984375 251.492188 145.589844 C 251.5625 146.195312 251.601562 146.808594 251.605469 147.433594 C 251.613281 148.058594 251.589844 148.6875 251.535156 149.324219 C 251.476562 149.960938 251.390625 150.601562 251.273438 151.246094 C 251.15625 151.890625 251.011719 152.53125 250.832031 153.175781 C 250.65625 153.820312 250.449219 154.460938 250.210938 155.097656 C 249.976562 155.734375 249.710938 156.367188 249.417969 156.992188 C 249.125 157.617188 248.804688 158.234375 248.457031 158.84375 C 248.113281 159.449219 247.738281 160.046875 247.34375 160.628906 C 246.945312 161.214844 246.523438 161.78125 246.082031 162.335938 C 245.636719 162.890625 245.171875 163.425781 244.6875 163.945312 C 244.199219 164.464844 243.695312 164.964844 243.171875 165.445312 C 242.648438 165.925781 242.109375 166.382812 241.554688 166.816406 C 240.996094 167.25 240.425781 167.660156 239.84375 168.046875 C 239.261719 168.433594 238.667969 168.792969 238.0625 169.128906 C 237.457031 169.460938 236.84375 169.765625 236.222656 170.046875 C 235.601562 170.324219 234.976562 170.574219 234.347656 170.792969 C 233.714844 171.011719 233.082031 171.203125 232.449219 171.363281 C 231.8125 171.519531 231.179688 171.648438 230.550781 171.746094 C 229.917969 171.84375 229.289062 171.910156 228.667969 171.945312 C 228.042969 171.980469 227.425781 171.984375 226.820312 171.953125 C 226.210938 171.925781 225.609375 171.867188 225.023438 171.773438 C 224.433594 171.683594 223.859375 171.558594 223.296875 171.40625 C 222.734375 171.253906 222.1875 171.070312 221.65625 170.855469 C 221.125 170.640625 220.609375 170.398438 220.117188 170.125 C 219.621094 169.851562 219.148438 169.550781 218.695312 169.222656 C 218.242188 168.894531 217.8125 168.539062 217.402344 168.15625 C 216.996094 167.777344 216.613281 167.371094 216.253906 166.9375 C 215.898438 166.507812 215.566406 166.054688 215.261719 165.582031 C 214.957031 165.105469 214.679688 164.609375 214.429688 164.09375 C 214.179688 163.578125 213.960938 163.046875 213.769531 162.492188 C 213.582031 161.941406 213.417969 161.378906 213.289062 160.796875 C 213.160156 160.214844 213.058594 159.621094 212.992188 159.015625 C 212.921875 158.410156 212.882812 157.796875 212.878906 157.171875 C 212.871094 156.546875 212.894531 155.917969 212.949219 155.28125 C 213.003906 154.644531 213.089844 154.003906 213.207031 153.359375 C 213.324219 152.714844 213.472656 152.074219 213.652344 151.429688 C 213.828125 150.785156 214.035156 150.144531 214.273438 149.507812 C 214.507812 148.871094 214.773438 148.238281 215.066406 147.613281 C 215.359375 146.988281 215.679688 146.371094 216.027344 145.761719 C 216.371094 145.15625 216.746094 144.558594 217.140625 143.976562 C 217.539062 143.390625 217.957031 142.824219 218.402344 142.269531 C 218.847656 141.714844 219.3125 141.179688 219.796875 140.660156 C 220.28125 140.140625 220.789062 139.640625 221.3125 139.160156 C 221.835938 138.679688 222.375 138.222656 222.929688 137.789062 C 223.488281 137.355469 224.058594 136.945312 224.640625 136.558594 C 225.222656 136.171875 225.816406 135.8125 226.421875 135.476562 C 227.027344 135.144531 227.640625 134.839844 228.261719 134.558594 C 228.882812 134.28125 229.507812 134.03125 230.136719 133.8125 C 230.769531 133.59375 231.402344 133.402344 232.035156 133.242188 C 232.667969 133.085938 233.300781 132.957031 233.933594 132.859375 C 234.566406 132.761719 235.195312 132.695312 235.816406 132.660156 C 236.441406 132.625 237.054688 132.621094 237.664062 132.652344 C 238.273438 132.679688 238.871094 132.738281 239.460938 132.832031 C 240.050781 132.921875 240.625 133.046875 241.1875 133.199219 C 241.75 133.351562 242.296875 133.535156 242.828125 133.75 C 243.359375 133.964844 243.871094 134.207031 244.367188 134.480469 C 244.863281 134.753906 245.335938 135.054688 245.789062 135.382812 C 246.242188 135.710938 246.671875 136.066406 247.078125 136.449219 Z M 247.078125 136.449219 " fill-opacity="1" fill-rule="nonzero"/><path fill="#ff6161" d="M 248.867188 138.125 C 249.277344 138.503906 249.660156 138.910156 250.015625 139.339844 C 250.375 139.773438 250.707031 140.222656 251.011719 140.699219 C 251.316406 141.175781 251.59375 141.671875 251.839844 142.1875 C 252.089844 142.703125 252.308594 143.234375 252.5 143.785156 C 252.691406 144.335938 252.851562 144.902344 252.980469 145.484375 C 253.113281 146.066406 253.210938 146.660156 253.28125 147.265625 C 253.351562 147.871094 253.386719 148.484375 253.394531 149.109375 C 253.402344 149.734375 253.378906 150.363281 253.320312 151 C 253.265625 151.636719 253.179688 152.277344 253.0625 152.921875 C 252.945312 153.5625 252.796875 154.207031 252.621094 154.851562 C 252.441406 155.496094 252.234375 156.136719 252 156.773438 C 251.761719 157.410156 251.5 158.042969 251.207031 158.667969 C 250.914062 159.292969 250.59375 159.910156 250.246094 160.519531 C 249.898438 161.125 249.527344 161.722656 249.128906 162.304688 C 248.734375 162.890625 248.3125 163.457031 247.871094 164.011719 C 247.425781 164.566406 246.960938 165.101562 246.476562 165.621094 C 245.988281 166.140625 245.484375 166.640625 244.960938 167.121094 C 244.4375 167.597656 243.898438 168.054688 243.339844 168.492188 C 242.785156 168.925781 242.214844 169.335938 241.632812 169.722656 C 241.046875 170.109375 240.453125 170.46875 239.847656 170.800781 C 239.246094 171.136719 238.632812 171.441406 238.011719 171.71875 C 237.390625 172 236.765625 172.246094 236.132812 172.46875 C 235.503906 172.6875 234.871094 172.878906 234.238281 173.035156 C 233.601562 173.195312 232.96875 173.324219 232.335938 173.421875 C 231.707031 173.519531 231.078125 173.585938 230.453125 173.621094 C 229.832031 173.65625 229.214844 173.65625 228.605469 173.628906 C 227.996094 173.601562 227.398438 173.539062 226.808594 173.449219 C 226.222656 173.355469 225.644531 173.234375 225.082031 173.082031 C 224.519531 172.925781 223.972656 172.742188 223.441406 172.527344 C 222.914062 172.316406 222.398438 172.070312 221.90625 171.800781 C 221.410156 171.527344 220.9375 171.226562 220.484375 170.898438 C 220.03125 170.566406 219.597656 170.214844 219.191406 169.832031 C 218.785156 169.449219 218.402344 169.042969 218.042969 168.613281 C 217.683594 168.183594 217.355469 167.730469 217.050781 167.253906 C 216.742188 166.78125 216.46875 166.285156 216.21875 165.769531 C 215.96875 165.253906 215.75 164.71875 215.558594 164.167969 C 215.367188 163.617188 215.207031 163.050781 215.078125 162.472656 C 214.945312 161.890625 214.847656 161.296875 214.777344 160.691406 C 214.710938 160.085938 214.671875 159.46875 214.664062 158.847656 C 214.660156 158.222656 214.683594 157.589844 214.738281 156.953125 C 214.792969 156.316406 214.878906 155.675781 214.996094 155.035156 C 215.113281 154.390625 215.261719 153.746094 215.4375 153.105469 C 215.617188 152.460938 215.824219 151.820312 216.058594 151.183594 C 216.296875 150.542969 216.5625 149.914062 216.855469 149.285156 C 217.148438 148.660156 217.46875 148.042969 217.8125 147.4375 C 218.160156 146.828125 218.53125 146.234375 218.929688 145.648438 C 219.328125 145.066406 219.746094 144.496094 220.191406 143.945312 C 220.632812 143.390625 221.097656 142.851562 221.585938 142.332031 C 222.070312 141.8125 222.574219 141.316406 223.097656 140.835938 C 223.621094 140.355469 224.164062 139.898438 224.71875 139.464844 C 225.273438 139.03125 225.84375 138.617188 226.429688 138.234375 C 227.011719 137.847656 227.605469 137.488281 228.210938 137.152344 C 228.816406 136.820312 229.429688 136.511719 230.050781 136.234375 C 230.667969 135.957031 231.296875 135.707031 231.925781 135.488281 C 232.554688 135.269531 233.1875 135.078125 233.824219 134.917969 C 234.457031 134.757812 235.089844 134.628906 235.722656 134.535156 C 236.355469 134.4375 236.980469 134.371094 237.605469 134.335938 C 238.226562 134.300781 238.84375 134.296875 239.453125 134.328125 C 240.0625 134.355469 240.660156 134.414062 241.25 134.507812 C 241.839844 134.597656 242.414062 134.71875 242.976562 134.875 C 243.539062 135.027344 244.085938 135.210938 244.617188 135.425781 C 245.148438 135.640625 245.660156 135.882812 246.15625 136.15625 C 246.648438 136.429688 247.125 136.730469 247.578125 137.058594 C 248.03125 137.386719 248.460938 137.742188 248.867188 138.125 Z M 248.867188 138.125 " fill-opacity="1" fill-rule="nonzero"/><path fill="#f04444" d="M 230.101562 162.796875 C 228.65625 164.886719 228.664062 165.046875 228.339844 164.855469 C 227.28125 164.246094 226.609375 163.90625 225.988281 163.359375 C 225.632812 163.035156 225.769531 162.734375 226.066406 162.289062 C 226.382812 161.804688 226.699219 161.332031 227.015625 160.859375 C 226.433594 159.9375 225.945312 159.171875 225.691406 157.640625 C 225.597656 156.691406 225.648438 156.652344 226.0625 156.273438 C 226.820312 155.570312 228.011719 154.753906 228.382812 154.542969 C 228.582031 154.417969 228.847656 154.488281 228.953125 154.90625 C 229.0625 155.414062 229.117188 155.449219 229.21875 155.773438 L 229.222656 155.773438 C 229.660156 156.855469 230.359375 157.648438 231.5 158.054688 C 232.902344 158.554688 233.640625 157.449219 233.347656 156.101562 C 232.898438 153.953125 231.773438 153.136719 231.660156 150.621094 C 231.710938 147.238281 235.242188 143.847656 238.972656 144.457031 C 239.445312 143.789062 239.917969 143.109375 240.386719 142.429688 C 240.554688 142.191406 240.613281 142.203125 240.800781 142.289062 C 241.824219 142.878906 242.578125 143.28125 243.109375 143.769531 C 243.3125 143.957031 243.390625 144.113281 243.253906 144.4375 C 243.164062 144.636719 242.265625 145.980469 242.09375 146.246094 C 242.679688 146.9375 243.078125 147.78125 243.28125 148.628906 C 243.332031 148.828125 243.410156 149 243.285156 149.207031 C 243.191406 149.394531 242.027344 150.570312 240.484375 151.460938 C 240.199219 151.621094 239.996094 151.765625 239.921875 151.441406 C 239.769531 150.847656 239.5 150.34375 239.136719 149.9375 C 237.464844 147.964844 235.863281 149.0625 236.246094 150.808594 C 236.460938 151.734375 237.0625 152.433594 237.425781 153.273438 C 239.289062 157.617188 234.851562 163.535156 230.101562 162.796875 Z M 230.101562 162.796875 " fill-opacity="1" fill-rule="nonzero"/><path fill="#e22626" d="M 230.101562 162.796875 C 228.65625 164.886719 228.664062 165.046875 228.339844 164.855469 C 227.28125 164.246094 226.609375 163.90625 225.988281 163.359375 C 225.632812 163.035156 225.769531 162.734375 226.066406 162.289062 C 226.382812 161.804688 226.699219 161.332031 227.015625 160.859375 C 226.433594 159.9375 225.945312 159.171875 225.691406 157.640625 C 225.597656 156.691406 225.648438 156.652344 226.0625 156.273438 C 226.820312 155.570312 228.011719 154.753906 228.382812 154.542969 C 228.582031 154.417969 228.847656 154.488281 228.953125 154.90625 C 229.0625 155.414062 229.117188 155.449219 229.21875 155.773438 C 228.179688 155.820312 227.140625 157.390625 228.144531 159.066406 C 229.070312 160.640625 231.023438 161.3125 232.964844 160.742188 C 234.898438 160.167969 236.984375 158.40625 237.757812 156.355469 C 237.363281 159.976562 233.683594 163.351562 230.101562 162.796875 Z M 230.101562 162.796875 " fill-opacity="1" fill-rule="nonzero"/><path fill="#3be094" d="M 210.269531 120.515625 C 210.269531 123.125 208.308594 126 206.546875 127.957031 C 198.621094 136.914062 183.949219 136.238281 177.632812 129.289062 C 175.1875 126.628906 173.882812 122.835938 174.609375 119.304688 C 175.375 115.945312 178.183594 114.789062 180.605469 116.429688 C 184.355469 119.007812 189.71875 125.574219 194.53125 124.597656 C 197.382812 124.019531 198.46875 121.335938 199.824219 119.085938 C 201.566406 116.1875 204.996094 114.375 208.066406 116.523438 C 209.664062 117.636719 210.269531 119.039062 210.269531 120.515625 Z M 210.269531 120.515625 " fill-opacity="1" fill-rule="nonzero"/><path fill="#2dc97d" d="M 210.269531 120.515625 C 210.269531 123.125 208.308594 126 206.546875 127.957031 C 198.621094 136.914062 183.949219 136.238281 177.632812 129.289062 C 174.269531 125.628906 173.722656 120.640625 175.117188 117.855469 C 176.339844 119.203125 179.476562 125.558594 187.203125 127.933594 C 190.25 128.851562 193.394531 129.3125 196.558594 128.972656 C 202.097656 128.371094 207.171875 125.105469 210.269531 120.515625 Z M 210.269531 120.515625 " fill-opacity="1" fill-rule="nonzero"/><path fill="#3be094" d="M 209.347656 190.203125 C 209.375 190.226562 209.347656 190.226562 209.347656 190.226562 C 208.746094 193.65625 204.898438 198.84375 199.292969 201.417969 C 192.1875 204.691406 182.078125 203.726562 176.808594 197.984375 C 173.390625 194.265625 172.902344 189.21875 174.34375 186.480469 C 175.429688 184.472656 177.632812 183.652344 179.804688 185.125 C 183.640625 187.785156 188.804688 194.214844 193.730469 193.296875 C 196.585938 192.714844 197.648438 190.035156 199 187.785156 C 200.742188 184.886719 204.175781 183.070312 207.246094 185.222656 C 209.203125 186.601562 209.664062 188.367188 209.347656 190.203125 Z M 209.347656 190.203125 " fill-opacity="1" fill-rule="nonzero"/><path fill="#2dc97d" d="M 209.347656 190.226562 C 208.746094 193.65625 204.898438 198.84375 199.292969 201.417969 C 192.1875 204.691406 182.078125 203.726562 176.808594 197.984375 C 173.390625 194.265625 172.902344 189.21875 174.34375 186.480469 C 174.5625 189.960938 176.398438 193.320312 179.128906 195.59375 C 186.835938 202.03125 201.527344 200.785156 209.347656 190.226562 Z M 209.347656 190.226562 " fill-opacity="1" fill-rule="nonzero"/><path fill="#ffca6c" d="M 203.964844 197.707031 C 206.265625 198.015625 209.933594 199.808594 210.816406 202.488281 C 211.605469 204.886719 207.945312 205.824219 206.617188 206.546875 C 204.628906 207.625 202.597656 208.585938 200.507812 209.339844 C 191.292969 212.65625 184.226562 210.59375 179.914062 206.253906 C 178.96875 205.304688 177.4375 203.9375 178.46875 202.398438 C 179.300781 201.15625 180.988281 200.523438 182.285156 200.550781 C 183.890625 200.582031 185.429688 201.550781 186.277344 203.066406 C 188.132812 199.65625 192.480469 199.710938 194.089844 203.085938 C 196.183594 199.398438 200.203125 197.207031 203.964844 197.707031 Z M 203.964844 197.707031 " fill-opacity="1" fill-rule="nonzero"/><path fill="#ffa20d" d="M 211.59375 205.605469 C 210.601562 201.714844 207.4375 198.671875 203.898438 198.199219 C 200.34375 197.710938 196.503906 199.839844 194.523438 203.332031 C 194.339844 203.652344 193.824219 203.679688 193.644531 203.300781 C 192.195312 200.261719 188.375 200.253906 186.714844 203.304688 C 186.542969 203.621094 186.054688 203.683594 185.84375 203.308594 C 184.183594 200.339844 180.390625 200.308594 178.480469 203.183594 C 178.113281 203.726562 177.289062 203.179688 177.652344 202.632812 C 179.898438 199.261719 184.089844 199.285156 186.273438 202.15625 C 188.367188 199.335938 192.132812 199.304688 194.101562 202.121094 C 196.394531 198.671875 200.289062 196.722656 204.03125 197.214844 C 208.023438 197.75 211.449219 201.019531 212.554688 205.359375 C 212.71875 205.996094 211.757812 206.242188 211.59375 205.605469 Z M 211.59375 205.605469 " fill-opacity="1" fill-rule="nonzero"/><path fill="#ffca6c" d="M 183.117188 128.859375 C 181.121094 129.125 177.941406 130.679688 177.175781 133.003906 C 176.492188 135.082031 179.664062 135.894531 180.820312 136.523438 C 185.832031 139.246094 191.476562 141.207031 197.035156 140.015625 C 199.589844 139.46875 202.039062 138.210938 203.96875 136.265625 C 204.785156 135.445312 206.113281 134.261719 205.21875 132.925781 C 204.5 131.847656 203.035156 131.300781 201.914062 131.324219 C 200.519531 131.351562 199.183594 132.191406 198.449219 133.507812 C 196.839844 130.546875 193.070312 130.59375 191.675781 133.523438 C 189.863281 130.324219 186.378906 128.425781 183.117188 128.859375 Z M 183.117188 128.859375 " fill-opacity="1" fill-rule="nonzero"/><path fill="#ffa20d" d="M 175.605469 135.476562 C 176.570312 131.691406 179.5625 128.832031 183.050781 128.367188 C 186.285156 127.9375 189.660156 129.605469 191.667969 132.570312 C 193.402344 130.195312 196.613281 130.21875 198.457031 132.609375 C 200.554688 129.945312 204.207031 130.429688 205.980469 133.09375 C 206.347656 133.640625 205.519531 134.1875 205.15625 133.644531 C 203.507812 131.167969 200.289062 131.234375 198.882812 133.75 C 198.691406 134.09375 198.195312 134.078125 198.015625 133.742188 C 196.914062 131.722656 194.792969 131.726562 194.992188 131.792969 C 193.8125 131.796875 192.6875 132.558594 192.125 133.734375 C 191.945312 134.113281 191.429688 134.089844 191.246094 133.765625 C 189.542969 130.761719 186.222656 128.933594 183.183594 129.351562 C 180.140625 129.757812 177.417969 132.375 176.566406 135.722656 C 176.402344 136.359375 175.445312 136.109375 175.605469 135.476562 Z M 175.605469 135.476562 " fill-opacity="1" fill-rule="nonzero"/><path fill="#ffca6c" d="M 101.453125 211.023438 C 97.0625 211.605469 90.074219 215.027344 88.390625 220.136719 C 86.886719 224.707031 93.863281 226.496094 96.398438 227.875 C 107.425781 233.863281 119.835938 238.171875 132.0625 235.554688 C 137.683594 234.351562 143.0625 231.585938 147.308594 227.3125 C 149.101562 225.503906 152.027344 222.898438 150.058594 219.960938 C 148.476562 217.597656 145.253906 216.394531 142.785156 216.441406 C 139.726562 216.5 136.789062 218.351562 135.171875 221.242188 C 133.570312 218.296875 130.5625 216.375 127.5625 216.382812 C 124.5625 216.390625 121.683594 218.324219 120.277344 221.277344 C 116.289062 214.242188 108.621094 210.066406 101.453125 211.023438 Z M 101.453125 211.023438 " fill-opacity="1" fill-rule="nonzero"/><path fill="#ffa20d" d="M 85.511719 225.722656 C 87.539062 217.753906 94.070312 211.507812 101.386719 210.53125 C 108.445312 209.597656 116.078125 213.570312 120.253906 220.269531 C 123.75 214.40625 131.363281 214.453125 135.179688 220.285156 C 139.199219 214.277344 147.230469 214.636719 151.242188 220.664062 C 151.609375 221.214844 150.773438 221.753906 150.414062 221.214844 C 146.535156 215.386719 138.90625 215.582031 135.605469 221.484375 C 135.519531 221.640625 135.351562 221.738281 135.171875 221.738281 C 134.988281 221.738281 134.824219 221.636719 134.738281 221.480469 C 132.121094 216.667969 127.367188 216.816406 127.566406 216.878906 C 124.742188 216.886719 122.054688 218.695312 120.726562 221.488281 C 120.546875 221.867188 120.03125 221.847656 119.847656 221.519531 C 115.980469 214.703125 108.433594 210.585938 101.519531 211.515625 C 94.589844 212.4375 88.40625 218.378906 86.472656 225.96875 C 86.308594 226.605469 85.347656 226.355469 85.511719 225.722656 Z M 85.511719 225.722656 " fill-opacity="1" fill-rule="nonzero"/><path fill="#ffca6c" d="M 254.222656 164.023438 C 258.613281 164.609375 265.601562 168.027344 267.285156 173.136719 C 268.789062 177.710938 261.8125 179.496094 259.277344 180.875 C 255.492188 182.929688 251.617188 184.765625 247.632812 186.199219 C 230.0625 192.523438 216.59375 188.589844 208.367188 180.3125 C 206.570312 178.507812 203.648438 175.902344 205.613281 172.964844 C 207.199219 170.597656 210.421875 169.394531 212.886719 169.441406 C 215.949219 169.5 218.886719 171.351562 220.5 174.242188 C 222.101562 171.296875 225.109375 169.378906 228.109375 169.382812 C 231.109375 169.390625 233.988281 171.324219 235.398438 174.277344 C 239.386719 167.242188 247.050781 163.066406 254.222656 164.023438 Z M 254.222656 164.023438 " fill-opacity="1" fill-rule="nonzero"/><path fill="#ffa20d" d="M 269.203125 178.96875 C 267.269531 171.382812 261.082031 165.4375 254.15625 164.515625 C 247.238281 163.589844 239.695312 167.707031 235.828125 174.523438 C 235.632812 174.867188 235.121094 174.851562 234.949219 174.488281 C 232.664062 169.699219 227.894531 169.816406 228.09375 169.878906 C 225.265625 169.878906 222.457031 171.683594 220.9375 174.480469 C 220.761719 174.796875 220.265625 174.839844 220.070312 174.484375 C 218.53125 171.734375 215.777344 169.996094 212.878906 169.9375 C 212.832031 169.9375 212.78125 169.9375 212.730469 169.9375 C 209.875 169.9375 207.023438 171.566406 205.257812 174.214844 C 204.890625 174.761719 204.070312 174.210938 204.433594 173.664062 C 206.414062 170.691406 209.652344 168.921875 212.898438 168.945312 C 215.886719 169.003906 218.730469 170.644531 220.496094 173.285156 C 224.339844 167.402344 231.949219 167.457031 235.417969 173.269531 C 239.597656 166.570312 247.226562 162.601562 254.289062 163.53125 C 261.605469 164.507812 268.132812 170.753906 270.164062 178.722656 C 270.328125 179.359375 269.367188 179.605469 269.203125 178.96875 Z M 269.203125 178.96875 " fill-opacity="1" fill-rule="nonzero"/><g clip-path="url(#941bd31006)"><path fill="#ffa20d" d="M 103.710938 94.496094 C 103.710938 95.679688 103.652344 96.859375 103.535156 98.039062 C 103.421875 99.21875 103.246094 100.386719 103.015625 101.550781 C 102.785156 102.710938 102.496094 103.859375 102.152344 104.992188 C 101.808594 106.125 101.410156 107.238281 100.957031 108.332031 C 100.503906 109.425781 100 110.496094 99.441406 111.539062 C 98.882812 112.582031 98.273438 113.597656 97.617188 114.582031 C 96.957031 115.566406 96.253906 116.515625 95.503906 117.433594 C 94.75 118.347656 93.957031 119.222656 93.117188 120.0625 C 92.28125 120.898438 91.40625 121.691406 90.488281 122.445312 C 89.574219 123.195312 88.625 123.898438 87.640625 124.558594 C 86.65625 125.214844 85.640625 125.824219 84.59375 126.382812 C 83.550781 126.941406 82.480469 127.445312 81.386719 127.898438 C 80.292969 128.351562 79.179688 128.75 78.046875 129.09375 C 76.914062 129.4375 75.765625 129.726562 74.605469 129.957031 C 73.441406 130.1875 72.273438 130.363281 71.09375 130.476562 C 69.914062 130.59375 68.734375 130.652344 67.550781 130.652344 C 66.363281 130.652344 65.183594 130.59375 64.003906 130.476562 C 62.824219 130.363281 61.65625 130.1875 60.496094 129.957031 C 59.332031 129.726562 58.183594 129.4375 57.050781 129.09375 C 55.917969 128.75 54.804688 128.351562 53.710938 127.898438 C 52.617188 127.445312 51.546875 126.941406 50.503906 126.382812 C 49.457031 125.824219 48.445312 125.214844 47.460938 124.558594 C 46.472656 123.898438 45.523438 123.195312 44.609375 122.445312 C 43.691406 121.691406 42.816406 120.898438 41.980469 120.0625 C 41.140625 119.222656 40.347656 118.347656 39.597656 117.433594 C 38.84375 116.515625 38.140625 115.566406 37.480469 114.582031 C 36.824219 113.597656 36.214844 112.582031 35.65625 111.539062 C 35.101562 110.496094 34.59375 109.425781 34.140625 108.332031 C 33.6875 107.238281 33.289062 106.125 32.945312 104.992188 C 32.601562 103.859375 32.3125 102.710938 32.082031 101.550781 C 31.851562 100.386719 31.679688 99.21875 31.5625 98.039062 C 31.445312 96.859375 31.386719 95.679688 31.386719 94.496094 C 31.386719 93.3125 31.445312 92.128906 31.5625 90.953125 C 31.679688 89.773438 31.851562 88.601562 32.082031 87.441406 C 32.3125 86.28125 32.601562 85.132812 32.945312 84 C 33.289062 82.867188 33.6875 81.753906 34.140625 80.660156 C 34.59375 79.566406 35.101562 78.496094 35.65625 77.453125 C 36.214844 76.40625 36.824219 75.390625 37.480469 74.40625 C 38.140625 73.421875 38.84375 72.472656 39.597656 71.558594 C 40.347656 70.640625 41.140625 69.765625 41.980469 68.929688 C 42.816406 68.089844 43.691406 67.296875 44.609375 66.546875 C 45.523438 65.792969 46.472656 65.089844 47.460938 64.433594 C 48.445312 63.773438 49.457031 63.167969 50.503906 62.609375 C 51.546875 62.050781 52.617188 61.542969 53.710938 61.089844 C 54.804688 60.636719 55.917969 60.238281 57.050781 59.894531 C 58.183594 59.550781 59.332031 59.265625 60.496094 59.035156 C 61.65625 58.800781 62.824219 58.628906 64.003906 58.511719 C 65.183594 58.398438 66.363281 58.339844 67.550781 58.339844 C 68.734375 58.339844 69.914062 58.398438 71.09375 58.511719 C 72.273438 58.628906 73.441406 58.800781 74.605469 59.035156 C 75.765625 59.265625 76.914062 59.550781 78.046875 59.894531 C 79.179688 60.238281 80.292969 60.636719 81.386719 61.089844 C 82.480469 61.542969 83.550781 62.050781 84.59375 62.609375 C 85.640625 63.167969 86.65625 63.773438 87.640625 64.433594 C 88.625 65.089844 89.574219 65.792969 90.488281 66.546875 C 91.40625 67.296875 92.28125 68.089844 93.117188 68.929688 C 93.957031 69.765625 94.75 70.640625 95.503906 71.558594 C 96.253906 72.472656 96.957031 73.421875 97.617188 74.40625 C 98.273438 75.390625 98.882812 76.40625 99.441406 77.453125 C 100 78.496094 100.503906 79.566406 100.957031 80.660156 C 101.410156 81.753906 101.808594 82.867188 102.152344 84 C 102.496094 85.132812 102.785156 86.28125 103.015625 87.441406 C 103.246094 88.601562 103.421875 89.773438 103.535156 90.953125 C 103.652344 92.128906 103.710938 93.3125 103.710938 94.496094 Z M 103.710938 94.496094 " fill-opacity="1" fill-rule="nonzero"/></g><path fill="#ffb63c" d="M 104.085938 117.347656 C 102.039062 120.625 99.355469 123.644531 97.058594 125.542969 C 97.046875 125.558594 97.011719 125.578125 97.003906 125.59375 C 85.113281 135.839844 67.742188 137.253906 54.265625 128.824219 C 37.324219 118.230469 32.183594 95.921875 42.769531 79 C 53.367188 62.0625 75.667969 56.9375 92.609375 67.53125 C 106.558594 76.257812 112.515625 92.945312 108.214844 108.027344 C 107.308594 111.242188 105.949219 114.375 104.085938 117.347656 Z M 104.085938 117.347656 " fill-opacity="1" fill-rule="nonzero"/><path fill="#ffa20d" d="M 100.6875 99.5 C 100.6875 100.324219 100.644531 101.144531 100.566406 101.964844 C 100.484375 102.78125 100.363281 103.597656 100.203125 104.402344 C 100.042969 105.210938 99.84375 106.007812 99.605469 106.796875 C 99.367188 107.582031 99.089844 108.359375 98.773438 109.117188 C 98.457031 109.878906 98.105469 110.621094 97.71875 111.347656 C 97.332031 112.074219 96.90625 112.777344 96.449219 113.464844 C 95.992188 114.148438 95.503906 114.808594 94.980469 115.445312 C 94.457031 116.082031 93.90625 116.691406 93.324219 117.273438 C 92.742188 117.855469 92.132812 118.40625 91.496094 118.929688 C 90.859375 119.449219 90.199219 119.941406 89.515625 120.398438 C 88.832031 120.855469 88.125 121.277344 87.398438 121.664062 C 86.671875 122.054688 85.929688 122.40625 85.167969 122.71875 C 84.410156 123.035156 83.636719 123.3125 82.847656 123.550781 C 82.058594 123.789062 81.261719 123.988281 80.453125 124.148438 C 79.648438 124.3125 78.832031 124.429688 78.015625 124.511719 C 77.195312 124.59375 76.375 124.632812 75.550781 124.632812 C 74.726562 124.632812 73.90625 124.59375 73.085938 124.511719 C 72.265625 124.429688 71.453125 124.3125 70.644531 124.148438 C 69.839844 123.988281 69.042969 123.789062 68.253906 123.550781 C 67.464844 123.3125 66.691406 123.035156 65.929688 122.71875 C 65.171875 122.40625 64.425781 122.054688 63.699219 121.664062 C 62.976562 121.277344 62.269531 120.855469 61.585938 120.398438 C 60.902344 119.941406 60.242188 119.449219 59.605469 118.929688 C 58.96875 118.40625 58.359375 117.855469 57.777344 117.273438 C 57.195312 116.691406 56.640625 116.082031 56.121094 115.445312 C 55.597656 114.808594 55.109375 114.148438 54.648438 113.464844 C 54.191406 112.777344 53.769531 112.074219 53.382812 111.347656 C 52.992188 110.621094 52.640625 109.878906 52.328125 109.117188 C 52.011719 108.359375 51.734375 107.582031 51.496094 106.796875 C 51.257812 106.007812 51.058594 105.210938 50.898438 104.402344 C 50.734375 103.597656 50.617188 102.78125 50.535156 101.964844 C 50.453125 101.144531 50.414062 100.324219 50.414062 99.5 C 50.414062 98.675781 50.453125 97.855469 50.535156 97.035156 C 50.617188 96.21875 50.734375 95.402344 50.898438 94.597656 C 51.058594 93.789062 51.257812 92.992188 51.496094 92.203125 C 51.734375 91.417969 52.011719 90.640625 52.328125 89.882812 C 52.640625 89.121094 52.992188 88.378906 53.382812 87.652344 C 53.769531 86.925781 54.191406 86.222656 54.648438 85.535156 C 55.109375 84.851562 55.597656 84.191406 56.121094 83.554688 C 56.640625 82.917969 57.195312 82.308594 57.777344 81.726562 C 58.359375 81.144531 58.96875 80.59375 59.605469 80.070312 C 60.242188 79.550781 60.902344 79.058594 61.585938 78.601562 C 62.269531 78.144531 62.976562 77.722656 63.699219 77.335938 C 64.425781 76.945312 65.171875 76.59375 65.929688 76.28125 C 66.691406 75.964844 67.464844 75.6875 68.253906 75.449219 C 69.042969 75.210938 69.839844 75.011719 70.644531 74.851562 C 71.453125 74.6875 72.265625 74.570312 73.085938 74.488281 C 73.90625 74.40625 74.726562 74.367188 75.550781 74.367188 C 76.375 74.367188 77.195312 74.40625 78.015625 74.488281 C 78.832031 74.570312 79.648438 74.6875 80.453125 74.851562 C 81.261719 75.011719 82.058594 75.210938 82.847656 75.449219 C 83.636719 75.6875 84.410156 75.964844 85.167969 76.28125 C 85.929688 76.59375 86.671875 76.945312 87.398438 77.335938 C 88.125 77.722656 88.832031 78.144531 89.515625 78.601562 C 90.199219 79.058594 90.859375 79.550781 91.496094 80.070312 C 92.132812 80.59375 92.742188 81.144531 93.324219 81.726562 C 93.90625 82.308594 94.457031 82.917969 94.980469 83.554688 C 95.503906 84.191406 95.992188 84.851562 96.449219 85.535156 C 96.90625 86.222656 97.332031 86.925781 97.71875 87.652344 C 98.105469 88.378906 98.457031 89.121094 98.773438 89.882812 C 99.089844 90.640625 99.367188 91.417969 99.605469 92.203125 C 99.84375 92.992188 100.042969 93.789062 100.203125 94.597656 C 100.363281 95.402344 100.484375 96.21875 100.566406 97.035156 C 100.644531 97.855469 100.6875 98.675781 100.6875 99.5 Z M 100.6875 99.5 " fill-opacity="1" fill-rule="nonzero"/><path fill="#ffde9b" d="M 97.625 97.582031 C 97.625 98.40625 97.582031 99.226562 97.503906 100.046875 C 97.421875 100.863281 97.300781 101.675781 97.140625 102.484375 C 96.980469 103.292969 96.78125 104.089844 96.542969 104.878906 C 96.300781 105.664062 96.023438 106.4375 95.710938 107.199219 C 95.394531 107.960938 95.042969 108.703125 94.65625 109.429688 C 94.265625 110.15625 93.84375 110.859375 93.386719 111.546875 C 92.929688 112.230469 92.441406 112.890625 91.917969 113.527344 C 91.394531 114.164062 90.84375 114.773438 90.261719 115.355469 C 89.679688 115.9375 89.070312 116.488281 88.433594 117.011719 C 87.796875 117.53125 87.136719 118.023438 86.453125 118.480469 C 85.769531 118.9375 85.0625 119.359375 84.335938 119.746094 C 83.609375 120.136719 82.867188 120.488281 82.105469 120.800781 C 81.347656 121.117188 80.570312 121.394531 79.785156 121.632812 C 78.996094 121.871094 78.199219 122.070312 77.390625 122.230469 C 76.582031 122.390625 75.769531 122.511719 74.949219 122.59375 C 74.132812 122.675781 73.308594 122.714844 72.488281 122.714844 C 71.664062 122.714844 70.84375 122.675781 70.023438 122.59375 C 69.203125 122.511719 68.390625 122.390625 67.582031 122.230469 C 66.777344 122.070312 65.976562 121.871094 65.191406 121.632812 C 64.402344 121.394531 63.628906 121.117188 62.867188 120.800781 C 62.105469 120.488281 61.363281 120.136719 60.636719 119.746094 C 59.910156 119.359375 59.207031 118.9375 58.523438 118.480469 C 57.835938 118.023438 57.175781 117.53125 56.539062 117.011719 C 55.90625 116.488281 55.296875 115.9375 54.714844 115.355469 C 54.132812 114.773438 53.578125 114.164062 53.054688 113.527344 C 52.535156 112.890625 52.042969 112.230469 51.585938 111.546875 C 51.128906 110.859375 50.707031 110.15625 50.320312 109.429688 C 49.929688 108.703125 49.578125 107.960938 49.265625 107.199219 C 48.949219 106.4375 48.671875 105.664062 48.433594 104.878906 C 48.195312 104.089844 47.996094 103.292969 47.832031 102.484375 C 47.671875 101.675781 47.550781 100.863281 47.472656 100.046875 C 47.390625 99.226562 47.351562 98.40625 47.351562 97.582031 C 47.351562 96.757812 47.390625 95.9375 47.472656 95.117188 C 47.550781 94.300781 47.671875 93.484375 47.832031 92.679688 C 47.996094 91.871094 48.195312 91.074219 48.433594 90.285156 C 48.671875 89.5 48.949219 88.722656 49.265625 87.964844 C 49.578125 87.203125 49.929688 86.460938 50.320312 85.734375 C 50.707031 85.007812 51.128906 84.304688 51.585938 83.617188 C 52.042969 82.933594 52.535156 82.273438 53.054688 81.636719 C 53.578125 81 54.132812 80.390625 54.714844 79.808594 C 55.296875 79.226562 55.90625 78.675781 56.539062 78.152344 C 57.175781 77.632812 57.835938 77.140625 58.523438 76.683594 C 59.207031 76.226562 59.910156 75.804688 60.636719 75.417969 C 61.363281 75.027344 62.105469 74.675781 62.867188 74.363281 C 63.628906 74.046875 64.402344 73.769531 65.191406 73.53125 C 65.976562 73.292969 66.777344 73.09375 67.582031 72.929688 C 68.390625 72.769531 69.203125 72.648438 70.023438 72.570312 C 70.84375 72.488281 71.664062 72.449219 72.488281 72.449219 C 73.308594 72.449219 74.132812 72.488281 74.949219 72.570312 C 75.769531 72.648438 76.582031 72.769531 77.390625 72.929688 C 78.199219 73.09375 78.996094 73.292969 79.785156 73.53125 C 80.570312 73.769531 81.347656 74.046875 82.105469 74.363281 C 82.867188 74.675781 83.609375 75.027344 84.335938 75.417969 C 85.0625 75.804688 85.769531 76.226562 86.453125 76.683594 C 87.136719 77.140625 87.796875 77.632812 88.433594 78.152344 C 89.070312 78.675781 89.679688 79.226562 90.261719 79.808594 C 90.84375 80.390625 91.394531 81 91.917969 81.636719 C 92.441406 82.273438 92.929688 82.933594 93.386719 83.617188 C 93.84375 84.304688 94.265625 85.007812 94.65625 85.734375 C 95.042969 86.460938 95.394531 87.203125 95.710938 87.964844 C 96.023438 88.722656 96.300781 89.5 96.542969 90.285156 C 96.78125 91.074219 96.980469 91.871094 97.140625 92.679688 C 97.300781 93.484375 97.421875 94.300781 97.503906 95.117188 C 97.582031 95.9375 97.625 96.757812 97.625 97.582031 Z M 97.625 97.582031 " fill-opacity="1" fill-rule="nonzero"/><path fill="#ffb63c" d="M 68.652344 108.972656 C 68.183594 109.753906 67.714844 110.519531 67.25 111.289062 C 67.097656 111.535156 66.988281 111.589844 66.695312 111.4375 C 65.105469 110.601562 64.101562 110.128906 63.125 109.40625 C 62.703125 109.082031 62.574219 108.800781 62.988281 108.066406 C 63.316406 107.480469 63.640625 106.910156 63.972656 106.335938 C 62.070312 104.089844 61.84375 103.40625 61.261719 101.613281 C 61.09375 101.078125 61.257812 100.867188 61.625 100.527344 C 62.183594 100 63.039062 99.351562 63.894531 98.839844 C 64.472656 98.472656 64.90625 98.160156 65.285156 99.007812 C 65.546875 99.640625 65.640625 99.710938 65.847656 100.113281 L 65.855469 100.117188 C 68.257812 104.050781 73.097656 104.417969 71.601562 100.804688 C 70.484375 98.046875 68.769531 97.003906 68.039062 93.820312 C 67.621094 91.265625 69.113281 88.589844 71.382812 87.347656 C 72.984375 86.457031 74.890625 86.242188 76.699219 86.59375 C 77.195312 85.785156 77.691406 84.964844 78.183594 84.144531 C 78.359375 83.863281 78.441406 83.871094 78.71875 83.996094 C 80.265625 84.808594 81.390625 85.363281 82.226562 86.007812 C 82.660156 86.339844 82.761719 86.585938 82.363281 87.300781 C 81.84375 88.238281 81.515625 88.816406 81.390625 89.042969 C 82.285156 89.882812 83.050781 90.9375 83.5625 92.109375 C 83.722656 92.460938 83.890625 92.726562 83.546875 93.042969 C 83.347656 93.195312 82.457031 94.359375 80.359375 95.46875 C 80.011719 95.644531 79.757812 95.820312 79.578125 95.40625 C 78.957031 94.03125 77.746094 92.921875 76.535156 92.34375 C 74.761719 91.410156 73.660156 92.625 74.382812 94.367188 C 74.890625 95.542969 75.875 96.457031 76.5625 97.53125 C 80.019531 102.960938 75.511719 110.25 68.652344 108.972656 Z M 68.652344 108.972656 " fill-opacity="1" fill-rule="nonzero"/><path fill="#ffa20d" d="M 68.652344 108.972656 C 68.183594 109.753906 67.714844 110.519531 67.25 111.289062 C 67.097656 111.535156 66.988281 111.589844 66.695312 111.4375 C 65.105469 110.601562 64.101562 110.128906 63.125 109.40625 C 62.703125 109.082031 62.574219 108.800781 62.988281 108.066406 C 63.316406 107.480469 63.640625 106.910156 63.972656 106.335938 C 62.070312 104.089844 61.84375 103.40625 61.261719 101.613281 C 61.09375 101.078125 61.257812 100.867188 61.625 100.527344 C 62.183594 100 63.039062 99.351562 63.894531 98.839844 C 64.472656 98.472656 64.90625 98.160156 65.285156 99.007812 C 65.546875 99.640625 65.640625 99.710938 65.847656 100.113281 C 65.050781 100.105469 64.324219 100.867188 64.210938 101.683594 C 63.910156 104.09375 67.824219 107.578125 72.121094 106.589844 C 74.648438 106 77.117188 103.9375 77.71875 101.417969 C 77.984375 105.769531 73.851562 109.941406 68.652344 108.972656 Z M 68.652344 108.972656 " fill-opacity="1" fill-rule="nonzero"/><path fill="#ffca6c" d="M 34.160156 126.21875 C 34.546875 137.820312 41.605469 146.691406 47.699219 150.246094 C 53.691406 153.773438 60.992188 155.152344 67.957031 154.039062 C 73.347656 153.195312 78.667969 150.753906 82.148438 146.523438 C 83.234375 145.214844 84.035156 143.015625 84.566406 140.40625 C 84.710938 139.632812 84.832031 138.835938 84.953125 138.011719 C 85.167969 136.515625 85.265625 135.015625 85.316406 133.492188 C 85.316406 133.105469 85.316406 132.742188 85.339844 132.382812 C 73.277344 136.394531 59.929688 133.710938 50.382812 125.492188 C 50.382812 125.472656 50.128906 125.285156 50.113281 125.273438 C 50.113281 125.25 50.089844 125.25 50.089844 125.226562 C 55.675781 120.175781 60.003906 113.359375 62.492188 106.25 C 63.097656 104.535156 63.582031 102.671875 63.167969 100.910156 C 62.492188 98.394531 59.90625 96.679688 57.320312 96.386719 C 54.683594 96.121094 52.097656 96.992188 49.753906 98.226562 C 45.375 100.472656 41.796875 103.882812 39.1875 107.917969 C 35.707031 113.238281 33.894531 119.714844 34.160156 126.21875 Z M 34.160156 126.21875 " fill-opacity="1" fill-rule="nonzero"/><path fill="#ffa20d" d="M 50.113281 125.273438 C 53.984375 131.65625 59.519531 134.992188 66.410156 137.890625 C 72.089844 140.285156 78.425781 141.15625 84.566406 140.40625 C 84.710938 139.632812 84.832031 138.835938 84.953125 138.011719 C 85.167969 136.515625 85.265625 135.015625 85.316406 133.492188 C 85.316406 133.105469 85.316406 132.742188 85.339844 132.382812 C 73.277344 136.394531 59.929688 133.710938 50.382812 125.492188 C 50.382812 125.472656 50.128906 125.285156 50.113281 125.273438 Z M 50.113281 125.273438 " fill-opacity="1" fill-rule="nonzero"/><path fill="#df8573" d="M 335.183594 228.855469 C 330.1875 241.546875 300.3125 236.089844 290.964844 221 C 288.984375 217.878906 288.210938 214.664062 288.984375 211.789062 C 290.234375 218.136719 294.21875 222.101562 299.71875 225.203125 C 307.273438 229.492188 315.207031 230.992188 323.363281 228.203125 C 330.066406 225.859375 332.910156 221.34375 329.839844 214.277344 C 333.851562 218.179688 337.140625 223.765625 335.183594 228.855469 Z M 335.183594 228.855469 " fill-opacity="1" fill-rule="nonzero"/><path fill="#ffffff" d="M 296.675781 112.714844 C 304.382812 119.695312 308.863281 127.785156 311.097656 136.722656 C 311.664062 138.988281 314.332031 140.570312 316.585938 139.839844 C 318.933594 139.078125 320.3125 136.777344 319.707031 134.347656 C 317.035156 123.667969 311.152344 113.792969 302.988281 106.402344 C 301.257812 104.832031 298.363281 104.566406 296.675781 106.402344 C 295.105469 108.109375 294.828125 111.039062 296.675781 112.714844 Z M 296.675781 112.714844 " fill-opacity="0.4" fill-rule="nonzero"/><path fill="#ffffff" d="M 317.082031 153.238281 C 318.023438 155.9375 318.792969 158.695312 319.378906 161.496094 C 319.835938 163.6875 322.589844 165.347656 324.867188 164.613281 C 327.523438 163.753906 328.480469 161.480469 327.988281 159.121094 C 327.398438 156.324219 326.632812 153.566406 325.691406 150.867188 C 325.304688 149.757812 324.675781 148.804688 323.640625 148.199219 C 321.4375 146.910156 318.578125 147.820312 317.535156 149.800781 C 316.992188 150.820312 316.6875 152.109375 317.082031 153.238281 Z M 317.082031 153.238281 " fill-opacity="0.4" fill-rule="nonzero"/><path fill="#ffffff" d="M 160.453125 131.132812 C 156.695312 133.679688 153.152344 136.566406 149.929688 139.769531 C 148.824219 140.867188 148.746094 142.890625 149.929688 143.976562 C 151.121094 145.070312 152.957031 145.148438 154.136719 143.976562 C 157.308594 140.828125 160.234375 138.453125 163.457031 136.269531 C 164.742188 135.398438 165.4375 133.613281 164.523438 132.199219 C 163.699219 130.917969 161.832031 130.195312 160.453125 131.132812 Z M 160.453125 131.132812 " fill-opacity="0.4" fill-rule="nonzero"/><path fill="#ffffff" d="M 142.285156 147.476562 C 140.6875 148.992188 139.273438 150.671875 137.972656 152.449219 C 137.152344 153.734375 137.628906 155.773438 139.039062 156.519531 C 140.496094 157.289062 141.359375 156.808594 142.042969 156.519531 C 142.328125 156.351562 147.367188 150.875 147.367188 149.582031 C 147.367188 147.015625 144.289062 145.574219 142.285156 147.476562 Z M 142.285156 147.476562 " fill-opacity="0.4" fill-rule="nonzero"/><path fill="#ffffff" d="M 49.117188 83.84375 C 50.6875 80.851562 52.828125 78.351562 55.777344 76.4375 C 56.425781 76.015625 56.9375 75.414062 57.144531 74.65625 C 57.339844 73.945312 57.253906 72.996094 56.84375 72.363281 C 56.003906 71.0625 54.171875 70.390625 52.773438 71.296875 C 49.105469 73.679688 46.015625 76.957031 43.980469 80.839844 C 43.257812 82.21875 43.582031 84.136719 45.046875 84.910156 C 46.417969 85.636719 48.34375 85.316406 49.117188 83.84375 Z M 49.117188 83.84375 " fill-opacity="0.4" fill-rule="nonzero"/><path fill="#ffffff" d="M 64.328125 71.882812 C 66.34375 70.523438 67.019531 71.140625 67.976562 70.265625 C 68.296875 70.058594 68.554688 69.78125 68.742188 69.433594 C 70.09375 67.308594 68.042969 64.347656 65.378906 65.0625 C 63.992188 65.328125 62.253906 66.113281 61.324219 66.742188 C 59.875 67.523438 59.453125 69.550781 60.257812 70.8125 C 61.300781 72.429688 63.082031 72.601562 64.328125 71.882812 Z M 64.328125 71.882812 " fill-opacity="0.4" fill-rule="nonzero"/></svg>